<mxfile host="app.diagrams.net" modified="2020-09-29T09:03:43.797Z" agent="5.0 (Macintosh; Intel Mac OS X 10_14_6) AppleWebKit/537.36 (KHTML, like Gecko) Chrome/85.0.4183.121 Safari/537.36" etag="vjfDQc3DKrzo1Asrik1g" version="13.5.8" type="github">
  <diagram id="enPMjsUcvFmXfXY8dEkP" name="第 1 页">
    <mxGraphModel dx="946" dy="5214" grid="1" gridSize="10" guides="1" tooltips="1" connect="1" arrows="1" fold="1" page="1" pageScale="1" pageWidth="3300" pageHeight="4681" math="0" shadow="0">
      <root>
        <mxCell id="0" />
        <mxCell id="1" parent="0" />
        <mxCell id="9zbdjHp9Pk3xqMdb3bdN-11" style="edgeStyle=orthogonalEdgeStyle;rounded=0;orthogonalLoop=1;jettySize=auto;html=1;exitX=0.5;exitY=1;exitDx=0;exitDy=0;entryX=0.5;entryY=0;entryDx=0;entryDy=0;" parent="1" source="9zbdjHp9Pk3xqMdb3bdN-1" target="9zbdjHp9Pk3xqMdb3bdN-3" edge="1">
          <mxGeometry relative="1" as="geometry" />
        </mxCell>
        <mxCell id="9zbdjHp9Pk3xqMdb3bdN-1" value="开始" style="rounded=1;whiteSpace=wrap;html=1;" parent="1" vertex="1">
          <mxGeometry x="180" y="160" width="120" height="60" as="geometry" />
        </mxCell>
        <mxCell id="9zbdjHp9Pk3xqMdb3bdN-12" style="edgeStyle=orthogonalEdgeStyle;rounded=0;orthogonalLoop=1;jettySize=auto;html=1;exitX=0.5;exitY=1;exitDx=0;exitDy=0;entryX=0.5;entryY=0;entryDx=0;entryDy=0;" parent="1" source="9zbdjHp9Pk3xqMdb3bdN-3" target="9zbdjHp9Pk3xqMdb3bdN-10" edge="1">
          <mxGeometry relative="1" as="geometry" />
        </mxCell>
        <mxCell id="9zbdjHp9Pk3xqMdb3bdN-3" value="执行fun-11" style="rounded=0;whiteSpace=wrap;html=1;" parent="1" vertex="1">
          <mxGeometry x="180" y="270" width="120" height="60" as="geometry" />
        </mxCell>
        <mxCell id="9zbdjHp9Pk3xqMdb3bdN-7" value="&lt;span style=&quot;color: rgb(0 , 0 , 0) ; font-family: &amp;#34;helvetica&amp;#34; ; font-size: 12px ; font-style: normal ; font-weight: 400 ; letter-spacing: normal ; text-indent: 0px ; text-transform: none ; word-spacing: 0px ; background-color: rgb(248 , 249 , 250) ; display: inline ; float: none&quot;&gt;fun-11，修改合同人/企业信息&lt;/span&gt;" style="text;whiteSpace=wrap;html=1;align=center;" parent="1" vertex="1">
          <mxGeometry x="160" y="90" width="170" height="40" as="geometry" />
        </mxCell>
        <mxCell id="9zbdjHp9Pk3xqMdb3bdN-10" value="修改car_order_base表&lt;br&gt;&lt;br&gt;is_person&lt;br&gt;car_own_username&lt;br&gt;car_own_id_card&lt;br&gt;car_own_phone&lt;br&gt;enterprise_code&lt;br&gt;enterprise_name" style="rounded=0;whiteSpace=wrap;html=1;" parent="1" vertex="1">
          <mxGeometry x="150" y="440" width="180" height="120" as="geometry" />
        </mxCell>
        <mxCell id="9zbdjHp9Pk3xqMdb3bdN-13" value="结束" style="rounded=1;whiteSpace=wrap;html=1;" parent="1" vertex="1">
          <mxGeometry x="180" y="620" width="120" height="60" as="geometry" />
        </mxCell>
        <mxCell id="9zbdjHp9Pk3xqMdb3bdN-14" style="edgeStyle=orthogonalEdgeStyle;rounded=0;orthogonalLoop=1;jettySize=auto;html=1;exitX=0.5;exitY=1;exitDx=0;exitDy=0;entryX=0.5;entryY=0;entryDx=0;entryDy=0;" parent="1" source="9zbdjHp9Pk3xqMdb3bdN-10" target="9zbdjHp9Pk3xqMdb3bdN-13" edge="1">
          <mxGeometry relative="1" as="geometry">
            <mxPoint x="250" y="380" as="sourcePoint" />
            <mxPoint x="250" y="480" as="targetPoint" />
          </mxGeometry>
        </mxCell>
        <mxCell id="9zbdjHp9Pk3xqMdb3bdN-15" style="edgeStyle=orthogonalEdgeStyle;rounded=0;orthogonalLoop=1;jettySize=auto;html=1;exitX=0.5;exitY=1;exitDx=0;exitDy=0;entryX=0.5;entryY=0;entryDx=0;entryDy=0;" parent="1" source="9zbdjHp9Pk3xqMdb3bdN-16" target="9zbdjHp9Pk3xqMdb3bdN-18" edge="1">
          <mxGeometry relative="1" as="geometry" />
        </mxCell>
        <mxCell id="9zbdjHp9Pk3xqMdb3bdN-16" value="开始" style="rounded=1;whiteSpace=wrap;html=1;" parent="1" vertex="1">
          <mxGeometry x="610" y="160" width="120" height="60" as="geometry" />
        </mxCell>
        <mxCell id="9zbdjHp9Pk3xqMdb3bdN-17" style="edgeStyle=orthogonalEdgeStyle;rounded=0;orthogonalLoop=1;jettySize=auto;html=1;exitX=0.5;exitY=1;exitDx=0;exitDy=0;" parent="1" source="9zbdjHp9Pk3xqMdb3bdN-18" edge="1">
          <mxGeometry relative="1" as="geometry">
            <mxPoint x="670" y="410" as="targetPoint" />
            <Array as="points">
              <mxPoint x="670" y="400" />
              <mxPoint x="670" y="400" />
            </Array>
          </mxGeometry>
        </mxCell>
        <mxCell id="9zbdjHp9Pk3xqMdb3bdN-18" value="执行fun-12" style="rounded=0;whiteSpace=wrap;html=1;" parent="1" vertex="1">
          <mxGeometry x="610" y="300" width="120" height="60" as="geometry" />
        </mxCell>
        <mxCell id="9zbdjHp9Pk3xqMdb3bdN-19" value="&lt;span style=&quot;color: rgb(0 , 0 , 0) ; font-family: &amp;#34;helvetica&amp;#34; ; font-size: 12px ; font-style: normal ; font-weight: 400 ; letter-spacing: normal ; text-indent: 0px ; text-transform: none ; word-spacing: 0px ; background-color: rgb(248 , 249 , 250) ; display: inline ; float: none&quot;&gt;fun-12，修改车辆归属人&lt;/span&gt;" style="text;whiteSpace=wrap;html=1;align=center;" parent="1" vertex="1">
          <mxGeometry x="590" y="80" width="170" height="40" as="geometry" />
        </mxCell>
        <mxCell id="9zbdjHp9Pk3xqMdb3bdN-28" style="edgeStyle=orthogonalEdgeStyle;rounded=0;orthogonalLoop=1;jettySize=auto;html=1;exitX=0.994;exitY=0.355;exitDx=0;exitDy=0;endArrow=none;endFill=0;dashed=1;exitPerimeter=0;" parent="1" source="9zbdjHp9Pk3xqMdb3bdN-26" target="9zbdjHp9Pk3xqMdb3bdN-27" edge="1">
          <mxGeometry relative="1" as="geometry" />
        </mxCell>
        <mxCell id="9zbdjHp9Pk3xqMdb3bdN-33" style="edgeStyle=none;rounded=0;orthogonalLoop=1;jettySize=auto;html=1;exitX=0.5;exitY=1;exitDx=0;exitDy=0;entryX=0.5;entryY=0;entryDx=0;entryDy=0;endArrow=classic;endFill=1;" parent="1" source="9zbdjHp9Pk3xqMdb3bdN-20" target="9zbdjHp9Pk3xqMdb3bdN-26" edge="1">
          <mxGeometry relative="1" as="geometry" />
        </mxCell>
        <mxCell id="9zbdjHp9Pk3xqMdb3bdN-20" value="修改car_order_base表&lt;br&gt;&lt;br&gt;car_id_card&lt;br&gt;car_phone&lt;br&gt;car_user_id" style="rounded=0;whiteSpace=wrap;html=1;" parent="1" vertex="1">
          <mxGeometry x="580" y="530" width="180" height="110" as="geometry" />
        </mxCell>
        <mxCell id="9zbdjHp9Pk3xqMdb3bdN-21" value="结束" style="rounded=1;whiteSpace=wrap;html=1;" parent="1" vertex="1">
          <mxGeometry x="610" y="880" width="120" height="60" as="geometry" />
        </mxCell>
        <mxCell id="9zbdjHp9Pk3xqMdb3bdN-25" style="edgeStyle=orthogonalEdgeStyle;rounded=0;orthogonalLoop=1;jettySize=auto;html=1;exitX=0.5;exitY=1;exitDx=0;exitDy=0;entryX=0.5;entryY=0;entryDx=0;entryDy=0;" parent="1" source="9zbdjHp9Pk3xqMdb3bdN-24" target="9zbdjHp9Pk3xqMdb3bdN-20" edge="1">
          <mxGeometry relative="1" as="geometry" />
        </mxCell>
        <mxCell id="9zbdjHp9Pk3xqMdb3bdN-24" value="根据手机号查询userId" style="rounded=0;whiteSpace=wrap;html=1;" parent="1" vertex="1">
          <mxGeometry x="580" y="410" width="180" height="60" as="geometry" />
        </mxCell>
        <mxCell id="9zbdjHp9Pk3xqMdb3bdN-34" style="edgeStyle=none;rounded=0;orthogonalLoop=1;jettySize=auto;html=1;exitX=0.5;exitY=1;exitDx=0;exitDy=0;endArrow=classic;endFill=1;" parent="1" source="9zbdjHp9Pk3xqMdb3bdN-26" edge="1">
          <mxGeometry relative="1" as="geometry">
            <mxPoint x="670" y="880" as="targetPoint" />
          </mxGeometry>
        </mxCell>
        <mxCell id="9zbdjHp9Pk3xqMdb3bdN-26" value="重新计算新旧车主的v身份&lt;br&gt;修改member表的car_type" style="rounded=0;whiteSpace=wrap;html=1;" parent="1" vertex="1">
          <mxGeometry x="580" y="720" width="180" height="110" as="geometry" />
        </mxCell>
        <mxCell id="9zbdjHp9Pk3xqMdb3bdN-27" value="" style="shape=image;imageAspect=0;aspect=fixed;verticalLabelPosition=bottom;verticalAlign=top;image=http://wiki.gacnio-inc.com/download/attachments/12782653/%E8%BD%A6%E4%B8%BB%E5%88%A4%E6%96%AD%E6%B5%81%E7%A8%8B.jpg?version=1&amp;modificationDate=1593573151000&amp;api=v2;" parent="1" vertex="1">
          <mxGeometry x="1200" y="-990" width="861.31" height="1345" as="geometry" />
        </mxCell>
        <mxCell id="9zbdjHp9Pk3xqMdb3bdN-35" value="充电桩联系电话由crm自行修改&lt;br&gt;修改归属人" style="rounded=0;whiteSpace=wrap;html=1;fillColor=#ffe6cc;strokeColor=#d79b00;" parent="1" vertex="1">
          <mxGeometry x="350" y="740" width="180" height="70" as="geometry" />
        </mxCell>
        <mxCell id="8-USg63AwL0OhvrTkQQ6-14" style="edgeStyle=none;rounded=0;orthogonalLoop=1;jettySize=auto;html=1;exitX=0.5;exitY=1;exitDx=0;exitDy=0;entryX=0.5;entryY=0;entryDx=0;entryDy=0;endArrow=classic;endFill=1;" edge="1" parent="1" source="8-USg63AwL0OhvrTkQQ6-1" target="8-USg63AwL0OhvrTkQQ6-11">
          <mxGeometry relative="1" as="geometry" />
        </mxCell>
        <mxCell id="8-USg63AwL0OhvrTkQQ6-1" value="金融方案重置&lt;br&gt;car_order_big_detail表的&lt;br&gt;crm_financial_id和financial_id设置为Null&lt;br&gt;&lt;br&gt;调用crm重置金融方案&lt;br&gt;&lt;br&gt;" style="rounded=0;whiteSpace=wrap;html=1;" vertex="1" parent="1">
          <mxGeometry x="870" y="410" width="180" height="110" as="geometry" />
        </mxCell>
        <mxCell id="8-USg63AwL0OhvrTkQQ6-3" value="&lt;span style=&quot;color: rgb(0 , 0 , 0) ; font-family: &amp;#34;helvetica&amp;#34; ; font-size: 12px ; font-style: normal ; font-weight: 400 ; letter-spacing: normal ; text-indent: 0px ; text-transform: none ; word-spacing: 0px ; background-color: rgb(248 , 249 , 250) ; display: inline ; float: none&quot;&gt;fun-13，重置金融方案&lt;/span&gt;" style="text;whiteSpace=wrap;html=1;align=center;" vertex="1" parent="1">
          <mxGeometry x="880" y="80" width="170" height="40" as="geometry" />
        </mxCell>
        <mxCell id="8-USg63AwL0OhvrTkQQ6-4" style="edgeStyle=orthogonalEdgeStyle;rounded=0;orthogonalLoop=1;jettySize=auto;html=1;exitX=0.5;exitY=1;exitDx=0;exitDy=0;entryX=0.5;entryY=0;entryDx=0;entryDy=0;" edge="1" parent="1" source="8-USg63AwL0OhvrTkQQ6-5" target="8-USg63AwL0OhvrTkQQ6-7">
          <mxGeometry relative="1" as="geometry" />
        </mxCell>
        <mxCell id="8-USg63AwL0OhvrTkQQ6-5" value="开始" style="rounded=1;whiteSpace=wrap;html=1;" vertex="1" parent="1">
          <mxGeometry x="900" y="160" width="120" height="60" as="geometry" />
        </mxCell>
        <mxCell id="8-USg63AwL0OhvrTkQQ6-6" style="edgeStyle=orthogonalEdgeStyle;rounded=0;orthogonalLoop=1;jettySize=auto;html=1;exitX=0.5;exitY=1;exitDx=0;exitDy=0;" edge="1" parent="1" source="8-USg63AwL0OhvrTkQQ6-7">
          <mxGeometry relative="1" as="geometry">
            <mxPoint x="960" y="410" as="targetPoint" />
            <Array as="points">
              <mxPoint x="960" y="400" />
              <mxPoint x="960" y="400" />
            </Array>
          </mxGeometry>
        </mxCell>
        <mxCell id="8-USg63AwL0OhvrTkQQ6-7" value="执行fun-13" style="rounded=0;whiteSpace=wrap;html=1;" vertex="1" parent="1">
          <mxGeometry x="900" y="300" width="120" height="60" as="geometry" />
        </mxCell>
        <mxCell id="8-USg63AwL0OhvrTkQQ6-11" value="结束" style="rounded=1;whiteSpace=wrap;html=1;" vertex="1" parent="1">
          <mxGeometry x="900" y="610" width="120" height="60" as="geometry" />
        </mxCell>
      </root>
    </mxGraphModel>
  </diagram>
</mxfile>
